<?xml version="1.0" encoding="utf-8" standalone="no"?>
<!DOCTYPE svg PUBLIC "-//W3C//DTD SVG 1.1//EN"
  "http://www.w3.org/Graphics/SVG/1.1/DTD/svg11.dtd">
<svg xmlns:xlink="http://www.w3.org/1999/xlink" width="244.8pt" height="215.666914pt" viewBox="0 0 244.8 215.666914" xmlns="http://www.w3.org/2000/svg" version="1.1">
 <metadata>
  <rdf:RDF xmlns:dc="http://purl.org/dc/elements/1.1/" xmlns:cc="http://creativecommons.org/ns#" xmlns:rdf="http://www.w3.org/1999/02/22-rdf-syntax-ns#">
   <cc:Work>
    <dc:type rdf:resource="http://purl.org/dc/dcmitype/StillImage"/>
    <dc:date>2026-06-16T10:13:38.525031</dc:date>
    <dc:format>image/svg+xml</dc:format>
    <dc:creator>
     <cc:Agent>
      <dc:title>Matplotlib v3.10.8, https://matplotlib.org/</dc:title>
     </cc:Agent>
    </dc:creator>
   </cc:Work>
  </rdf:RDF>
 </metadata>
 <defs>
  <style type="text/css">*{stroke-linejoin: round; stroke-linecap: butt}</style>
 </defs>
 <g id="figure_1">
  <g id="patch_1">
   <path d="M 0 215.666914 
L 244.8 215.666914 
L 244.8 0 
L 0 0 
z
" style="fill: #ffffff"/>
  </g>
  <g id="axes_1">
   <g id="patch_2">
    <path d="M 33.813482 194.4026 
L 242.618485 194.4026 
L 242.618485 21.264314 
L 33.813482 21.264314 
z
" style="fill: #ffffff"/>
   </g>
   <g id="matplotlib.axis_1">
    <g id="xtick_1">
     <g id="line2d_1">
      <defs>
       <path id="m5401fcdfe5" d="M 0 0 
L 0 2.4 
" style="stroke: #000000; stroke-width: 0.6"/>
      </defs>
      <g>
       <use xlink:href="#m5401fcdfe5" x="45.41376" y="194.4026" style="stroke: #000000; stroke-width: 0.6"/>
      </g>
     </g>
     <g id="text_1">
      <text style="font-size: 6px; font-family: 'Arial', 'Helvetica', 'DejaVu Sans', sans-serif; text-anchor: middle" x="45.41376" y="202.297288" transform="rotate(-0 45.41376 202.297288)">S1</text>
     </g>
    </g>
    <g id="xtick_2">
     <g id="line2d_2">
      <g>
       <use xlink:href="#m5401fcdfe5" x="91.814872" y="194.4026" style="stroke: #000000; stroke-width: 0.6"/>
      </g>
     </g>
     <g id="text_2">
      <text style="font-size: 6px; font-family: 'Arial', 'Helvetica', 'DejaVu Sans', sans-serif; text-anchor: middle" x="91.814872" y="202.297288" transform="rotate(-0 91.814872 202.297288)">S2</text>
     </g>
    </g>
    <g id="xtick_3">
     <g id="line2d_3">
      <g>
       <use xlink:href="#m5401fcdfe5" x="138.215984" y="194.4026" style="stroke: #000000; stroke-width: 0.6"/>
      </g>
     </g>
     <g id="text_3">
      <text style="font-size: 6px; font-family: 'Arial', 'Helvetica', 'DejaVu Sans', sans-serif; text-anchor: middle" x="138.215984" y="202.297288" transform="rotate(-0 138.215984 202.297288)">S3</text>
     </g>
    </g>
    <g id="xtick_4">
     <g id="line2d_4">
      <g>
       <use xlink:href="#m5401fcdfe5" x="184.617095" y="194.4026" style="stroke: #000000; stroke-width: 0.6"/>
      </g>
     </g>
     <g id="text_4">
      <text style="font-size: 6px; font-family: 'Arial', 'Helvetica', 'DejaVu Sans', sans-serif; text-anchor: middle" x="184.617095" y="202.297288" transform="rotate(-0 184.617095 202.297288)">S4</text>
     </g>
    </g>
    <g id="xtick_5">
     <g id="line2d_5">
      <g>
       <use xlink:href="#m5401fcdfe5" x="231.018207" y="194.4026" style="stroke: #000000; stroke-width: 0.6"/>
      </g>
     </g>
     <g id="text_5">
      <text style="font-size: 6px; font-family: 'Arial', 'Helvetica', 'DejaVu Sans', sans-serif; text-anchor: middle" x="231.018207" y="202.297288" transform="rotate(-0 231.018207 202.297288)">S5</text>
     </g>
    </g>
   </g>
   <g id="matplotlib.axis_2">
    <g id="ytick_1">
     <g id="line2d_6">
      <path d="M 33.813482 186.532678 
L 242.618485 186.532678 
" clip-path="url(#pb12809ca89)" style="fill: none; stroke: #e6e6e6; stroke-width: 0.3; stroke-linecap: square"/>
     </g>
     <g id="line2d_7">
      <defs>
       <path id="m74bf350338" d="M 0 0 
L -2.4 0 
" style="stroke: #000000; stroke-width: 0.6"/>
      </defs>
      <g>
       <use xlink:href="#m74bf350338" x="33.813482" y="186.532678" style="stroke: #000000; stroke-width: 0.6"/>
      </g>
     </g>
     <g id="text_6">
      <text style="font-size: 6px; font-family: 'Arial', 'Helvetica', 'DejaVu Sans', sans-serif; text-anchor: end" x="30.213482" y="188.680022" transform="rotate(-0 30.213482 188.680022)">−60</text>
     </g>
    </g>
    <g id="ytick_2">
     <g id="line2d_8">
      <path d="M 33.813482 147.183068 
L 242.618485 147.183068 
" clip-path="url(#pb12809ca89)" style="fill: none; stroke: #e6e6e6; stroke-width: 0.3; stroke-linecap: square"/>
     </g>
     <g id="line2d_9">
      <g>
       <use xlink:href="#m74bf350338" x="33.813482" y="147.183068" style="stroke: #000000; stroke-width: 0.6"/>
      </g>
     </g>
     <g id="text_7">
      <text style="font-size: 6px; font-family: 'Arial', 'Helvetica', 'DejaVu Sans', sans-serif; text-anchor: end" x="30.213482" y="149.330411" transform="rotate(-0 30.213482 149.330411)">−30</text>
     </g>
    </g>
    <g id="ytick_3">
     <g id="line2d_10">
      <path d="M 33.813482 107.833457 
L 242.618485 107.833457 
" clip-path="url(#pb12809ca89)" style="fill: none; stroke: #e6e6e6; stroke-width: 0.3; stroke-linecap: square"/>
     </g>
     <g id="line2d_11">
      <g>
       <use xlink:href="#m74bf350338" x="33.813482" y="107.833457" style="stroke: #000000; stroke-width: 0.6"/>
      </g>
     </g>
     <g id="text_8">
      <text style="font-size: 6px; font-family: 'Arial', 'Helvetica', 'DejaVu Sans', sans-serif; text-anchor: end" x="30.213482" y="109.980801" transform="rotate(-0 30.213482 109.980801)">0</text>
     </g>
    </g>
    <g id="ytick_4">
     <g id="line2d_12">
      <path d="M 33.813482 68.483847 
L 242.618485 68.483847 
" clip-path="url(#pb12809ca89)" style="fill: none; stroke: #e6e6e6; stroke-width: 0.3; stroke-linecap: square"/>
     </g>
     <g id="line2d_13">
      <g>
       <use xlink:href="#m74bf350338" x="33.813482" y="68.483847" style="stroke: #000000; stroke-width: 0.6"/>
      </g>
     </g>
     <g id="text_9">
      <text style="font-size: 6px; font-family: 'Arial', 'Helvetica', 'DejaVu Sans', sans-serif; text-anchor: end" x="30.213482" y="70.63119" transform="rotate(-0 30.213482 70.63119)">30</text>
     </g>
    </g>
    <g id="ytick_5">
     <g id="line2d_14">
      <path d="M 33.813482 29.134236 
L 242.618485 29.134236 
" clip-path="url(#pb12809ca89)" style="fill: none; stroke: #e6e6e6; stroke-width: 0.3; stroke-linecap: square"/>
     </g>
     <g id="line2d_15">
      <g>
       <use xlink:href="#m74bf350338" x="33.813482" y="29.134236" style="stroke: #000000; stroke-width: 0.6"/>
      </g>
     </g>
     <g id="text_10">
      <text style="font-size: 6px; font-family: 'Arial', 'Helvetica', 'DejaVu Sans', sans-serif; text-anchor: end" x="30.213482" y="31.28158" transform="rotate(-0 30.213482 31.28158)">60</text>
     </g>
    </g>
    <g id="text_11">
     <!-- $\Delta \mathrm{pull}_{\mathrm{clip}}$ (pp) -->
     <g style="fill: #222222" transform="translate(16.051982 126.457457) rotate(-90)">
      <text>
       <tspan x="0" y="-0.4375" style="font-size: 6.4px; font-family: 'DejaVu Sans'; fill: #222222">Δ</tspan>
       <tspan x="4.361023" y="-0.4375" style="font-size: 6.4px; font-family: 'DejaVu Sans'; fill: #222222">p</tspan>
       <tspan x="8.407654" y="-0.4375" style="font-size: 6.4px; font-family: 'DejaVu Sans'; fill: #222222">u</tspan>
       <tspan x="12.448059" y="-0.4375" style="font-size: 6.4px; font-family: 'DejaVu Sans'; fill: #222222">l</tspan>
       <tspan x="14.219238" y="-0.4375" style="font-size: 6.4px; font-family: 'DejaVu Sans'; fill: #222222">l</tspan>
       <tspan x="16.047839" y="0.546875" style="font-size: 4.48px; font-family: 'DejaVu Sans'; fill: #222222">c</tspan>
       <tspan x="18.501343" y="0.546875" style="font-size: 4.48px; font-family: 'DejaVu Sans'; fill: #222222">l</tspan>
       <tspan x="19.741168" y="0.546875" style="font-size: 4.48px; font-family: 'DejaVu Sans'; fill: #222222">i</tspan>
       <tspan x="20.980994" y="0.546875" style="font-size: 4.48px; font-family: 'DejaVu Sans'; fill: #222222">p</tspan>
       <tspan x="23.977698" y="-0.4375" style="font-size: 6.4px; font-family: 'Arial'; fill: #222222"> </tspan>
       <tspan x="25.748877" y="-0.4375" style="font-size: 6.4px; font-family: 'Arial'; fill: #222222">(</tspan>
       <tspan x="27.871802" y="-0.4375" style="font-size: 6.4px; font-family: 'Arial'; fill: #222222">p</tspan>
       <tspan x="31.417273" y="-0.4375" style="font-size: 6.4px; font-family: 'Arial'; fill: #222222">p</tspan>
       <tspan x="34.962744" y="-0.4375" style="font-size: 6.4px; font-family: 'Arial'; fill: #222222">)</tspan>
      </text>
     </g>
    </g>
   </g>
   <g id="line2d_16">
    <path d="M 45.41376 127.430918 
L 91.814872 120.993628 
L 138.215984 108.750267 
L 184.617095 76.291079 
L 231.018207 84.491472 
" clip-path="url(#pb12809ca89)" style="fill: none; stroke: #005ab5; stroke-width: 0.7875; stroke-linecap: square"/>
    <defs>
     <path id="mb95271af4d" d="M 0 0.85 
C 0.225423 0.85 0.441643 0.760439 0.601041 0.601041 
C 0.760439 0.441643 0.85 0.225423 0.85 0 
C 0.85 -0.225423 0.760439 -0.441643 0.601041 -0.601041 
C 0.441643 -0.760439 0.225423 -0.85 0 -0.85 
C -0.225423 -0.85 -0.441643 -0.760439 -0.601041 -0.601041 
C -0.760439 -0.441643 -0.85 -0.225423 -0.85 0 
C -0.85 0.225423 -0.760439 0.441643 -0.601041 0.601041 
C -0.441643 0.760439 -0.225423 0.85 0 0.85 
z
" style="stroke: #005ab5"/>
    </defs>
    <g clip-path="url(#pb12809ca89)">
     <use xlink:href="#mb95271af4d" x="45.41376" y="127.430918" style="fill: #005ab5; stroke: #005ab5"/>
     <use xlink:href="#mb95271af4d" x="91.814872" y="120.993628" style="fill: #005ab5; stroke: #005ab5"/>
     <use xlink:href="#mb95271af4d" x="138.215984" y="108.750267" style="fill: #005ab5; stroke: #005ab5"/>
     <use xlink:href="#mb95271af4d" x="184.617095" y="76.291079" style="fill: #005ab5; stroke: #005ab5"/>
     <use xlink:href="#mb95271af4d" x="231.018207" y="84.491472" style="fill: #005ab5; stroke: #005ab5"/>
    </g>
   </g>
   <g id="line2d_17">
    <path d="M 45.41376 151.872082 
L 91.814872 155.374341 
L 138.215984 144.423202 
L 184.617095 107.358748 
L 231.018207 102.076629 
" clip-path="url(#pb12809ca89)" style="fill: none; stroke: #d55e00; stroke-width: 0.7875; stroke-linecap: square"/>
    <defs>
     <path id="m5080887748" d="M 0 0.85 
C 0.225423 0.85 0.441643 0.760439 0.601041 0.601041 
C 0.760439 0.441643 0.85 0.225423 0.85 0 
C 0.85 -0.225423 0.760439 -0.441643 0.601041 -0.601041 
C 0.441643 -0.760439 0.225423 -0.85 0 -0.85 
C -0.225423 -0.85 -0.441643 -0.760439 -0.601041 -0.601041 
C -0.760439 -0.441643 -0.85 -0.225423 -0.85 0 
C -0.85 0.225423 -0.760439 0.441643 -0.601041 0.601041 
C -0.441643 0.760439 -0.225423 0.85 0 0.85 
z
" style="stroke: #d55e00"/>
    </defs>
    <g clip-path="url(#pb12809ca89)">
     <use xlink:href="#m5080887748" x="45.41376" y="151.872082" style="fill: #d55e00; stroke: #d55e00"/>
     <use xlink:href="#m5080887748" x="91.814872" y="155.374341" style="fill: #d55e00; stroke: #d55e00"/>
     <use xlink:href="#m5080887748" x="138.215984" y="144.423202" style="fill: #d55e00; stroke: #d55e00"/>
     <use xlink:href="#m5080887748" x="184.617095" y="107.358748" style="fill: #d55e00; stroke: #d55e00"/>
     <use xlink:href="#m5080887748" x="231.018207" y="102.076629" style="fill: #d55e00; stroke: #d55e00"/>
    </g>
   </g>
   <g id="line2d_18">
    <path d="M 45.41376 137.270172 
L 91.814872 111.79649 
L 138.215984 109.947429 
L 184.617095 99.319214 
L 231.018207 99.549329 
" clip-path="url(#pb12809ca89)" style="fill: none; stroke: #009e73; stroke-width: 0.7875; stroke-linecap: square"/>
    <defs>
     <path id="mfa6af0a5a4" d="M 0 0.85 
C 0.225423 0.85 0.441643 0.760439 0.601041 0.601041 
C 0.760439 0.441643 0.85 0.225423 0.85 0 
C 0.85 -0.225423 0.760439 -0.441643 0.601041 -0.601041 
C 0.441643 -0.760439 0.225423 -0.85 0 -0.85 
C -0.225423 -0.85 -0.441643 -0.760439 -0.601041 -0.601041 
C -0.760439 -0.441643 -0.85 -0.225423 -0.85 0 
C -0.85 0.225423 -0.760439 0.441643 -0.601041 0.601041 
C -0.441643 0.760439 -0.225423 0.85 0 0.85 
z
" style="stroke: #009e73"/>
    </defs>
    <g clip-path="url(#pb12809ca89)">
     <use xlink:href="#mfa6af0a5a4" x="45.41376" y="137.270172" style="fill: #009e73; stroke: #009e73"/>
     <use xlink:href="#mfa6af0a5a4" x="91.814872" y="111.79649" style="fill: #009e73; stroke: #009e73"/>
     <use xlink:href="#mfa6af0a5a4" x="138.215984" y="109.947429" style="fill: #009e73; stroke: #009e73"/>
     <use xlink:href="#mfa6af0a5a4" x="184.617095" y="99.319214" style="fill: #009e73; stroke: #009e73"/>
     <use xlink:href="#mfa6af0a5a4" x="231.018207" y="99.549329" style="fill: #009e73; stroke: #009e73"/>
    </g>
   </g>
   <g id="line2d_19">
    <path d="M 45.41376 83.834942 
L 91.814872 58.878651 
L 138.215984 60.874641 
L 184.617095 38.256068 
L 231.018207 58.106367 
" clip-path="url(#pb12809ca89)" style="fill: none; stroke-dasharray: 2.91375,1.26; stroke-dashoffset: 0; stroke: #c79ab6; stroke-opacity: 0.65; stroke-width: 0.7875"/>
    <defs>
     <path id="m4c6ac0a901" d="M 0 0.85 
C 0.225423 0.85 0.441643 0.760439 0.601041 0.601041 
C 0.760439 0.441643 0.85 0.225423 0.85 0 
C 0.85 -0.225423 0.760439 -0.441643 0.601041 -0.601041 
C 0.441643 -0.760439 0.225423 -0.85 0 -0.85 
C -0.225423 -0.85 -0.441643 -0.760439 -0.601041 -0.601041 
C -0.760439 -0.441643 -0.85 -0.225423 -0.85 0 
C -0.85 0.225423 -0.760439 0.441643 -0.601041 0.601041 
C -0.441643 0.760439 -0.225423 0.85 0 0.85 
z
" style="stroke: #c79ab6; stroke-opacity: 0.65"/>
    </defs>
    <g clip-path="url(#pb12809ca89)">
     <use xlink:href="#m4c6ac0a901" x="45.41376" y="83.834942" style="fill: #c79ab6; fill-opacity: 0.65; stroke: #c79ab6; stroke-opacity: 0.65"/>
     <use xlink:href="#m4c6ac0a901" x="91.814872" y="58.878651" style="fill: #c79ab6; fill-opacity: 0.65; stroke: #c79ab6; stroke-opacity: 0.65"/>
     <use xlink:href="#m4c6ac0a901" x="138.215984" y="60.874641" style="fill: #c79ab6; fill-opacity: 0.65; stroke: #c79ab6; stroke-opacity: 0.65"/>
     <use xlink:href="#m4c6ac0a901" x="184.617095" y="38.256068" style="fill: #c79ab6; fill-opacity: 0.65; stroke: #c79ab6; stroke-opacity: 0.65"/>
     <use xlink:href="#m4c6ac0a901" x="231.018207" y="58.106367" style="fill: #c79ab6; fill-opacity: 0.65; stroke: #c79ab6; stroke-opacity: 0.65"/>
    </g>
   </g>
   <g id="line2d_20">
    <path d="M 45.41376 73.312615 
L 91.814872 74.165653 
L 138.215984 83.60523 
L 184.617095 91.713146 
L 231.018207 99.089099 
" clip-path="url(#pb12809ca89)" style="fill: none; stroke-dasharray: 2.91375,1.26; stroke-dashoffset: 0; stroke: #91bfe3; stroke-opacity: 0.65; stroke-width: 0.7875"/>
    <defs>
     <path id="m910e8fc18f" d="M 0 0.85 
C 0.225423 0.85 0.441643 0.760439 0.601041 0.601041 
C 0.760439 0.441643 0.85 0.225423 0.85 0 
C 0.85 -0.225423 0.760439 -0.441643 0.601041 -0.601041 
C 0.441643 -0.760439 0.225423 -0.85 0 -0.85 
C -0.225423 -0.85 -0.441643 -0.760439 -0.601041 -0.601041 
C -0.760439 -0.441643 -0.85 -0.225423 -0.85 0 
C -0.85 0.225423 -0.760439 0.441643 -0.601041 0.601041 
C -0.441643 0.760439 -0.225423 0.85 0 0.85 
z
" style="stroke: #91bfe3; stroke-opacity: 0.65"/>
    </defs>
    <g clip-path="url(#pb12809ca89)">
     <use xlink:href="#m910e8fc18f" x="45.41376" y="73.312615" style="fill: #91bfe3; fill-opacity: 0.65; stroke: #91bfe3; stroke-opacity: 0.65"/>
     <use xlink:href="#m910e8fc18f" x="91.814872" y="74.165653" style="fill: #91bfe3; fill-opacity: 0.65; stroke: #91bfe3; stroke-opacity: 0.65"/>
     <use xlink:href="#m910e8fc18f" x="138.215984" y="83.60523" style="fill: #91bfe3; fill-opacity: 0.65; stroke: #91bfe3; stroke-opacity: 0.65"/>
     <use xlink:href="#m910e8fc18f" x="184.617095" y="91.713146" style="fill: #91bfe3; fill-opacity: 0.65; stroke: #91bfe3; stroke-opacity: 0.65"/>
     <use xlink:href="#m910e8fc18f" x="231.018207" y="99.089099" style="fill: #91bfe3; fill-opacity: 0.65; stroke: #91bfe3; stroke-opacity: 0.65"/>
    </g>
   </g>
   <g id="line2d_21">
    <path d="M 45.41376 141.816764 
L 91.814872 127.847424 
L 138.215984 117.375473 
L 184.617095 115.637933 
L 231.018207 108.740518 
" clip-path="url(#pb12809ca89)" style="fill: none; stroke-dasharray: 2.91375,1.26; stroke-dashoffset: 0; stroke: #b2a071; stroke-opacity: 0.65; stroke-width: 0.7875"/>
    <defs>
     <path id="m20e5a0a733" d="M 0 0.85 
C 0.225423 0.85 0.441643 0.760439 0.601041 0.601041 
C 0.760439 0.441643 0.85 0.225423 0.85 0 
C 0.85 -0.225423 0.760439 -0.441643 0.601041 -0.601041 
C 0.441643 -0.760439 0.225423 -0.85 0 -0.85 
C -0.225423 -0.85 -0.441643 -0.760439 -0.601041 -0.601041 
C -0.760439 -0.441643 -0.85 -0.225423 -0.85 0 
C -0.85 0.225423 -0.760439 0.441643 -0.601041 0.601041 
C -0.441643 0.760439 -0.225423 0.85 0 0.85 
z
" style="stroke: #b2a071; stroke-opacity: 0.65"/>
    </defs>
    <g clip-path="url(#pb12809ca89)">
     <use xlink:href="#m20e5a0a733" x="45.41376" y="141.816764" style="fill: #b2a071; fill-opacity: 0.65; stroke: #b2a071; stroke-opacity: 0.65"/>
     <use xlink:href="#m20e5a0a733" x="91.814872" y="127.847424" style="fill: #b2a071; fill-opacity: 0.65; stroke: #b2a071; stroke-opacity: 0.65"/>
     <use xlink:href="#m20e5a0a733" x="138.215984" y="117.375473" style="fill: #b2a071; fill-opacity: 0.65; stroke: #b2a071; stroke-opacity: 0.65"/>
     <use xlink:href="#m20e5a0a733" x="184.617095" y="115.637933" style="fill: #b2a071; fill-opacity: 0.65; stroke: #b2a071; stroke-opacity: 0.65"/>
     <use xlink:href="#m20e5a0a733" x="231.018207" y="108.740518" style="fill: #b2a071; fill-opacity: 0.65; stroke: #b2a071; stroke-opacity: 0.65"/>
    </g>
   </g>
   <g id="line2d_22">
    <path d="M 33.813482 107.833457 
L 242.618485 107.833457 
" clip-path="url(#pb12809ca89)" style="fill: none; stroke: #222222; stroke-width: 0.5; stroke-linecap: square"/>
   </g>
   <g id="patch_3">
    <path d="M 33.813482 194.4026 
L 33.813482 21.264314 
" style="fill: none; stroke: #000000; stroke-width: 0.6; stroke-linejoin: miter; stroke-linecap: square"/>
   </g>
   <g id="patch_4">
    <path d="M 33.813482 194.4026 
L 242.618485 194.4026 
" style="fill: none; stroke: #000000; stroke-width: 0.6; stroke-linejoin: miter; stroke-linecap: square"/>
   </g>
   <g id="text_12">
    <!-- $\times$0.5: $\Delta \mathrm{pull}_{\mathrm{clip}}$ -->
    <g style="fill: #222222" transform="translate(113.832984 17.064314)">
     <text>
      <tspan x="0" y="-0.6875" style="font-size: 7.4px; font-family: 'DejaVu Sans'; fill: #222222">×</tspan>
      <tspan x="20.811646" y="-0.6875" style="font-size: 7.4px; font-family: 'DejaVu Sans'; fill: #222222">Δ</tspan>
      <tspan x="25.85675" y="-0.6875" style="font-size: 7.4px; font-family: 'DejaVu Sans'; fill: #222222">p</tspan>
      <tspan x="30.538147" y="-0.6875" style="font-size: 7.4px; font-family: 'DejaVu Sans'; fill: #222222">u</tspan>
      <tspan x="35.212341" y="-0.6875" style="font-size: 7.4px; font-family: 'DejaVu Sans'; fill: #222222">l</tspan>
      <tspan x="37.261353" y="-0.6875" style="font-size: 7.4px; font-family: 'DejaVu Sans'; fill: #222222">l</tspan>
      <tspan x="6.179443" y="-0.6875" style="font-weight: 700; font-size: 7.4px; font-family: 'Arial'; fill: #222222">0</tspan>
      <tspan x="10.281067" y="-0.6875" style="font-weight: 700; font-size: 7.4px; font-family: 'Arial'; fill: #222222">.</tspan>
      <tspan x="12.330078" y="-0.6875" style="font-weight: 700; font-size: 7.4px; font-family: 'Arial'; fill: #222222">5</tspan>
      <tspan x="16.306702" y="-0.6875" style="font-weight: 700; font-size: 7.4px; font-family: 'Arial'; fill: #222222">:</tspan>
      <tspan x="18.762634" y="-0.6875" style="font-weight: 700; font-size: 7.4px; font-family: 'Arial'; fill: #222222"> </tspan>
      <tspan x="39.377356" y="0.460938" style="font-size: 5.18px; font-family: 'DejaVu Sans'; fill: #222222">c</tspan>
      <tspan x="42.215723" y="0.460938" style="font-size: 5.18px; font-family: 'DejaVu Sans'; fill: #222222">l</tspan>
      <tspan x="43.650031" y="0.460938" style="font-size: 5.18px; font-family: 'DejaVu Sans'; fill: #222222">i</tspan>
      <tspan x="45.084338" y="0.460938" style="font-size: 5.18px; font-family: 'DejaVu Sans'; fill: #222222">p</tspan>
     </text>
    </g>
   </g>
   <g id="line2d_23">
    <path d="M 45.41376 80.885694 
L 91.814872 134.652868 
" clip-path="url(#pb12809ca89)" style="fill: none; stroke-dasharray: 2.91375,1.26; stroke-dashoffset: 0; stroke: #3f4858; stroke-width: 0.7875"/>
   </g>
   <g id="line2d_24">
    <path d="M 91.814872 134.652868 
L 138.215984 103.164537 
L 184.617095 93.878295 
L 231.018207 100.506897 
" clip-path="url(#pb12809ca89)" style="fill: none; stroke: #3f4858; stroke-width: 0.7875; stroke-linecap: square"/>
    <defs>
     <path id="m3b0ec6ea5e" d="M 0 0.85 
C 0.225423 0.85 0.441643 0.760439 0.601041 0.601041 
C 0.760439 0.441643 0.85 0.225423 0.85 0 
C 0.85 -0.225423 0.760439 -0.441643 0.601041 -0.601041 
C 0.441643 -0.760439 0.225423 -0.85 0 -0.85 
C -0.225423 -0.85 -0.441643 -0.760439 -0.601041 -0.601041 
C -0.760439 -0.441643 -0.85 -0.225423 -0.85 0 
C -0.85 0.225423 -0.760439 0.441643 -0.601041 0.601041 
C -0.441643 0.760439 -0.225423 0.85 0 0.85 
z
" style="stroke: #3f4858"/>
    </defs>
    <g clip-path="url(#pb12809ca89)">
     <use xlink:href="#m3b0ec6ea5e" x="91.814872" y="134.652868" style="fill: #3f4858; stroke: #3f4858"/>
     <use xlink:href="#m3b0ec6ea5e" x="138.215984" y="103.164537" style="fill: #3f4858; stroke: #3f4858"/>
     <use xlink:href="#m3b0ec6ea5e" x="184.617095" y="93.878295" style="fill: #3f4858; stroke: #3f4858"/>
     <use xlink:href="#m3b0ec6ea5e" x="231.018207" y="100.506897" style="fill: #3f4858; stroke: #3f4858"/>
    </g>
   </g>
   <g id="PathCollection_1">
    <defs>
     <path id="m25267512cd" d="M -1.274755 1.274755 
L 1.274755 -1.274755 
M -1.274755 -1.274755 
L 1.274755 1.274755 
" style="stroke: #3f4858; stroke-width: 0.62"/>
    </defs>
    <g clip-path="url(#pb12809ca89)">
     <use xlink:href="#m25267512cd" x="45.41376" y="80.885694" style="fill: #3f4858; stroke: #3f4858; stroke-width: 0.62"/>
    </g>
   </g>
  </g>
 </g>
 <defs>
  <clipPath id="pb12809ca89">
   <rect x="33.813482" y="21.264314" width="208.805003" height="173.138286"/>
  </clipPath>
 </defs>
</svg>
