<?xml version="1.0" encoding="utf-8" standalone="no"?>
<!DOCTYPE svg PUBLIC "-//W3C//DTD SVG 1.1//EN"
  "http://www.w3.org/Graphics/SVG/1.1/DTD/svg11.dtd">
<svg xmlns:xlink="http://www.w3.org/1999/xlink" width="244.8pt" height="215.666914pt" viewBox="0 0 244.8 215.666914" xmlns="http://www.w3.org/2000/svg" version="1.1">
 <metadata>
  <rdf:RDF xmlns:dc="http://purl.org/dc/elements/1.1/" xmlns:cc="http://creativecommons.org/ns#" xmlns:rdf="http://www.w3.org/1999/02/22-rdf-syntax-ns#">
   <cc:Work>
    <dc:type rdf:resource="http://purl.org/dc/dcmitype/StillImage"/>
    <dc:date>2026-06-16T10:13:41.048393</dc:date>
    <dc:format>image/svg+xml</dc:format>
    <dc:creator>
     <cc:Agent>
      <dc:title>Matplotlib v3.10.8, https://matplotlib.org/</dc:title>
     </cc:Agent>
    </dc:creator>
   </cc:Work>
  </rdf:RDF>
 </metadata>
 <defs>
  <style type="text/css">*{stroke-linejoin: round; stroke-linecap: butt}</style>
 </defs>
 <g id="figure_1">
  <g id="patch_1">
   <path d="M 0 215.666914 
L 244.8 215.666914 
L 244.8 0 
L 0 0 
z
" style="fill: #ffffff"/>
  </g>
  <g id="axes_1">
   <g id="patch_2">
    <path d="M 33.813482 194.4026 
L 242.618485 194.4026 
L 242.618485 21.264314 
L 33.813482 21.264314 
z
" style="fill: #ffffff"/>
   </g>
   <g id="matplotlib.axis_1">
    <g id="xtick_1">
     <g id="line2d_1">
      <defs>
       <path id="m43a736d95c" d="M 0 0 
L 0 2.4 
" style="stroke: #000000; stroke-width: 0.6"/>
      </defs>
      <g>
       <use xlink:href="#m43a736d95c" x="45.41376" y="194.4026" style="stroke: #000000; stroke-width: 0.6"/>
      </g>
     </g>
     <g id="text_1">
      <text style="font-size: 6px; font-family: 'Arial', 'Helvetica', 'DejaVu Sans', sans-serif; text-anchor: middle" x="45.41376" y="202.297288" transform="rotate(-0 45.41376 202.297288)">S1</text>
     </g>
    </g>
    <g id="xtick_2">
     <g id="line2d_2">
      <g>
       <use xlink:href="#m43a736d95c" x="91.814872" y="194.4026" style="stroke: #000000; stroke-width: 0.6"/>
      </g>
     </g>
     <g id="text_2">
      <text style="font-size: 6px; font-family: 'Arial', 'Helvetica', 'DejaVu Sans', sans-serif; text-anchor: middle" x="91.814872" y="202.297288" transform="rotate(-0 91.814872 202.297288)">S2</text>
     </g>
    </g>
    <g id="xtick_3">
     <g id="line2d_3">
      <g>
       <use xlink:href="#m43a736d95c" x="138.215984" y="194.4026" style="stroke: #000000; stroke-width: 0.6"/>
      </g>
     </g>
     <g id="text_3">
      <text style="font-size: 6px; font-family: 'Arial', 'Helvetica', 'DejaVu Sans', sans-serif; text-anchor: middle" x="138.215984" y="202.297288" transform="rotate(-0 138.215984 202.297288)">S3</text>
     </g>
    </g>
    <g id="xtick_4">
     <g id="line2d_4">
      <g>
       <use xlink:href="#m43a736d95c" x="184.617095" y="194.4026" style="stroke: #000000; stroke-width: 0.6"/>
      </g>
     </g>
     <g id="text_4">
      <text style="font-size: 6px; font-family: 'Arial', 'Helvetica', 'DejaVu Sans', sans-serif; text-anchor: middle" x="184.617095" y="202.297288" transform="rotate(-0 184.617095 202.297288)">S4</text>
     </g>
    </g>
    <g id="xtick_5">
     <g id="line2d_5">
      <g>
       <use xlink:href="#m43a736d95c" x="231.018207" y="194.4026" style="stroke: #000000; stroke-width: 0.6"/>
      </g>
     </g>
     <g id="text_5">
      <text style="font-size: 6px; font-family: 'Arial', 'Helvetica', 'DejaVu Sans', sans-serif; text-anchor: middle" x="231.018207" y="202.297288" transform="rotate(-0 231.018207 202.297288)">S5</text>
     </g>
    </g>
   </g>
   <g id="matplotlib.axis_2">
    <g id="ytick_1">
     <g id="line2d_6">
      <path d="M 33.813482 183.110973 
L 242.618485 183.110973 
" clip-path="url(#p3434e0a1e5)" style="fill: none; stroke: #e6e6e6; stroke-width: 0.3; stroke-linecap: square"/>
     </g>
     <g id="line2d_7">
      <defs>
       <path id="m55b257c409" d="M 0 0 
L -2.4 0 
" style="stroke: #000000; stroke-width: 0.6"/>
      </defs>
      <g>
       <use xlink:href="#m55b257c409" x="33.813482" y="183.110973" style="stroke: #000000; stroke-width: 0.6"/>
      </g>
     </g>
     <g id="text_6">
      <text style="font-size: 6px; font-family: 'Arial', 'Helvetica', 'DejaVu Sans', sans-serif; text-anchor: end" x="30.213482" y="185.258316" transform="rotate(-0 30.213482 185.258316)">−1.0</text>
     </g>
    </g>
    <g id="ytick_2">
     <g id="line2d_8">
      <path d="M 33.813482 145.472215 
L 242.618485 145.472215 
" clip-path="url(#p3434e0a1e5)" style="fill: none; stroke: #e6e6e6; stroke-width: 0.3; stroke-linecap: square"/>
     </g>
     <g id="line2d_9">
      <g>
       <use xlink:href="#m55b257c409" x="33.813482" y="145.472215" style="stroke: #000000; stroke-width: 0.6"/>
      </g>
     </g>
     <g id="text_7">
      <text style="font-size: 6px; font-family: 'Arial', 'Helvetica', 'DejaVu Sans', sans-serif; text-anchor: end" x="30.213482" y="147.619559" transform="rotate(-0 30.213482 147.619559)">−0.5</text>
     </g>
    </g>
    <g id="ytick_3">
     <g id="line2d_10">
      <path d="M 33.813482 107.833457 
L 242.618485 107.833457 
" clip-path="url(#p3434e0a1e5)" style="fill: none; stroke: #e6e6e6; stroke-width: 0.3; stroke-linecap: square"/>
     </g>
     <g id="line2d_11">
      <g>
       <use xlink:href="#m55b257c409" x="33.813482" y="107.833457" style="stroke: #000000; stroke-width: 0.6"/>
      </g>
     </g>
     <g id="text_8">
      <text style="font-size: 6px; font-family: 'Arial', 'Helvetica', 'DejaVu Sans', sans-serif; text-anchor: end" x="30.213482" y="109.980801" transform="rotate(-0 30.213482 109.980801)">0.0</text>
     </g>
    </g>
    <g id="ytick_4">
     <g id="line2d_12">
      <path d="M 33.813482 70.194699 
L 242.618485 70.194699 
" clip-path="url(#p3434e0a1e5)" style="fill: none; stroke: #e6e6e6; stroke-width: 0.3; stroke-linecap: square"/>
     </g>
     <g id="line2d_13">
      <g>
       <use xlink:href="#m55b257c409" x="33.813482" y="70.194699" style="stroke: #000000; stroke-width: 0.6"/>
      </g>
     </g>
     <g id="text_9">
      <text style="font-size: 6px; font-family: 'Arial', 'Helvetica', 'DejaVu Sans', sans-serif; text-anchor: end" x="30.213482" y="72.342043" transform="rotate(-0 30.213482 72.342043)">0.5</text>
     </g>
    </g>
    <g id="ytick_5">
     <g id="line2d_14">
      <path d="M 33.813482 32.555941 
L 242.618485 32.555941 
" clip-path="url(#p3434e0a1e5)" style="fill: none; stroke: #e6e6e6; stroke-width: 0.3; stroke-linecap: square"/>
     </g>
     <g id="line2d_15">
      <g>
       <use xlink:href="#m55b257c409" x="33.813482" y="32.555941" style="stroke: #000000; stroke-width: 0.6"/>
      </g>
     </g>
     <g id="text_10">
      <text style="font-size: 6px; font-family: 'Arial', 'Helvetica', 'DejaVu Sans', sans-serif; text-anchor: end" x="30.213482" y="34.703285" transform="rotate(-0 30.213482 34.703285)">1.0</text>
     </g>
    </g>
    <g id="text_11">
     <!-- normalized $c$ -->
     <g style="fill: #222222" transform="translate(15.097107 126.137457) rotate(-90)">
      <text>
       <tspan x="0" y="-0.703125" style="font-size: 6.4px; font-family: 'Arial'; fill: #222222">n</tspan>
       <tspan x="3.545471" y="-0.703125" style="font-size: 6.4px; font-family: 'Arial'; fill: #222222">o</tspan>
       <tspan x="7.090942" y="-0.703125" style="font-size: 6.4px; font-family: 'Arial'; fill: #222222">r</tspan>
       <tspan x="9.213867" y="-0.703125" style="font-size: 6.4px; font-family: 'Arial'; fill: #222222">m</tspan>
       <tspan x="14.524292" y="-0.703125" style="font-size: 6.4px; font-family: 'Arial'; fill: #222222">a</tspan>
       <tspan x="18.069763" y="-0.703125" style="font-size: 6.4px; font-family: 'Arial'; fill: #222222">l</tspan>
       <tspan x="19.486084" y="-0.703125" style="font-size: 6.4px; font-family: 'Arial'; fill: #222222">i</tspan>
       <tspan x="20.902405" y="-0.703125" style="font-size: 6.4px; font-family: 'Arial'; fill: #222222">z</tspan>
       <tspan x="24.089905" y="-0.703125" style="font-size: 6.4px; font-family: 'Arial'; fill: #222222">e</tspan>
       <tspan x="27.635376" y="-0.703125" style="font-size: 6.4px; font-family: 'Arial'; fill: #222222">d</tspan>
       <tspan x="31.180847" y="-0.703125" style="font-size: 6.4px; font-family: 'Arial'; fill: #222222"> </tspan>
       <tspan x="32.952026" y="-0.703125" style="font-style: oblique; font-size: 6.4px; font-family: 'DejaVu Sans'; fill: #222222">c</tspan>
      </text>
     </g>
    </g>
   </g>
   <g id="line2d_16">
    <path d="M 45.41376 143.479966 
L 91.814872 93.629418 
L 138.215984 65.406098 
L 184.617095 59.092828 
L 231.018207 32.555941 
" clip-path="url(#p3434e0a1e5)" style="fill: none; stroke: #005ab5; stroke-width: 0.7875; stroke-linecap: square"/>
    <defs>
     <path id="m54202597de" d="M 0 0.85 
C 0.225423 0.85 0.441643 0.760439 0.601041 0.601041 
C 0.760439 0.441643 0.85 0.225423 0.85 0 
C 0.85 -0.225423 0.760439 -0.441643 0.601041 -0.601041 
C 0.441643 -0.760439 0.225423 -0.85 0 -0.85 
C -0.225423 -0.85 -0.441643 -0.760439 -0.601041 -0.601041 
C -0.760439 -0.441643 -0.85 -0.225423 -0.85 0 
C -0.85 0.225423 -0.760439 0.441643 -0.601041 0.601041 
C -0.441643 0.760439 -0.225423 0.85 0 0.85 
z
" style="stroke: #005ab5"/>
    </defs>
    <g clip-path="url(#p3434e0a1e5)">
     <use xlink:href="#m54202597de" x="45.41376" y="143.479966" style="fill: #005ab5; stroke: #005ab5"/>
     <use xlink:href="#m54202597de" x="91.814872" y="93.629418" style="fill: #005ab5; stroke: #005ab5"/>
     <use xlink:href="#m54202597de" x="138.215984" y="65.406098" style="fill: #005ab5; stroke: #005ab5"/>
     <use xlink:href="#m54202597de" x="184.617095" y="59.092828" style="fill: #005ab5; stroke: #005ab5"/>
     <use xlink:href="#m54202597de" x="231.018207" y="32.555941" style="fill: #005ab5; stroke: #005ab5"/>
    </g>
   </g>
   <g id="line2d_17">
    <path d="M 45.41376 127.622945 
L 91.814872 138.535517 
L 138.215984 121.799404 
L 184.617095 108.044835 
L 231.018207 99.041878 
" clip-path="url(#p3434e0a1e5)" style="fill: none; stroke: #d55e00; stroke-width: 0.7875; stroke-linecap: square"/>
    <defs>
     <path id="m78f504f3a3" d="M 0 0.85 
C 0.225423 0.85 0.441643 0.760439 0.601041 0.601041 
C 0.760439 0.441643 0.85 0.225423 0.85 0 
C 0.85 -0.225423 0.760439 -0.441643 0.601041 -0.601041 
C 0.441643 -0.760439 0.225423 -0.85 0 -0.85 
C -0.225423 -0.85 -0.441643 -0.760439 -0.601041 -0.601041 
C -0.760439 -0.441643 -0.85 -0.225423 -0.85 0 
C -0.85 0.225423 -0.760439 0.441643 -0.601041 0.601041 
C -0.441643 0.760439 -0.225423 0.85 0 0.85 
z
" style="stroke: #d55e00"/>
    </defs>
    <g clip-path="url(#p3434e0a1e5)">
     <use xlink:href="#m78f504f3a3" x="45.41376" y="127.622945" style="fill: #d55e00; stroke: #d55e00"/>
     <use xlink:href="#m78f504f3a3" x="91.814872" y="138.535517" style="fill: #d55e00; stroke: #d55e00"/>
     <use xlink:href="#m78f504f3a3" x="138.215984" y="121.799404" style="fill: #d55e00; stroke: #d55e00"/>
     <use xlink:href="#m78f504f3a3" x="184.617095" y="108.044835" style="fill: #d55e00; stroke: #d55e00"/>
     <use xlink:href="#m78f504f3a3" x="231.018207" y="99.041878" style="fill: #d55e00; stroke: #d55e00"/>
    </g>
   </g>
   <g id="line2d_18">
    <path d="M 45.41376 134.142755 
L 91.814872 117.106753 
L 138.215984 113.990383 
L 184.617095 109.461326 
L 231.018207 65.75878 
" clip-path="url(#p3434e0a1e5)" style="fill: none; stroke: #009e73; stroke-width: 0.7875; stroke-linecap: square"/>
    <defs>
     <path id="mf98897d099" d="M 0 0.85 
C 0.225423 0.85 0.441643 0.760439 0.601041 0.601041 
C 0.760439 0.441643 0.85 0.225423 0.85 0 
C 0.85 -0.225423 0.760439 -0.441643 0.601041 -0.601041 
C 0.441643 -0.760439 0.225423 -0.85 0 -0.85 
C -0.225423 -0.85 -0.441643 -0.760439 -0.601041 -0.601041 
C -0.760439 -0.441643 -0.85 -0.225423 -0.85 0 
C -0.85 0.225423 -0.760439 0.441643 -0.601041 0.601041 
C -0.441643 0.760439 -0.225423 0.85 0 0.85 
z
" style="stroke: #009e73"/>
    </defs>
    <g clip-path="url(#p3434e0a1e5)">
     <use xlink:href="#mf98897d099" x="45.41376" y="134.142755" style="fill: #009e73; stroke: #009e73"/>
     <use xlink:href="#mf98897d099" x="91.814872" y="117.106753" style="fill: #009e73; stroke: #009e73"/>
     <use xlink:href="#mf98897d099" x="138.215984" y="113.990383" style="fill: #009e73; stroke: #009e73"/>
     <use xlink:href="#mf98897d099" x="184.617095" y="109.461326" style="fill: #009e73; stroke: #009e73"/>
     <use xlink:href="#mf98897d099" x="231.018207" y="65.75878" style="fill: #009e73; stroke: #009e73"/>
    </g>
   </g>
   <g id="line2d_19">
    <path d="M 45.41376 107.05477 
L 91.814872 88.300045 
L 138.215984 86.876042 
L 184.617095 82.601255 
L 231.018207 88.631759 
" clip-path="url(#p3434e0a1e5)" style="fill: none; stroke-dasharray: 2.91375,1.26; stroke-dashoffset: 0; stroke: #c79ab6; stroke-opacity: 0.65; stroke-width: 0.7875"/>
    <defs>
     <path id="md30f876539" d="M 0 0.85 
C 0.225423 0.85 0.441643 0.760439 0.601041 0.601041 
C 0.760439 0.441643 0.85 0.225423 0.85 0 
C 0.85 -0.225423 0.760439 -0.441643 0.601041 -0.601041 
C 0.441643 -0.760439 0.225423 -0.85 0 -0.85 
C -0.225423 -0.85 -0.441643 -0.760439 -0.601041 -0.601041 
C -0.760439 -0.441643 -0.85 -0.225423 -0.85 0 
C -0.85 0.225423 -0.760439 0.441643 -0.601041 0.601041 
C -0.441643 0.760439 -0.225423 0.85 0 0.85 
z
" style="stroke: #c79ab6; stroke-opacity: 0.65"/>
    </defs>
    <g clip-path="url(#p3434e0a1e5)">
     <use xlink:href="#md30f876539" x="45.41376" y="107.05477" style="fill: #c79ab6; fill-opacity: 0.65; stroke: #c79ab6; stroke-opacity: 0.65"/>
     <use xlink:href="#md30f876539" x="91.814872" y="88.300045" style="fill: #c79ab6; fill-opacity: 0.65; stroke: #c79ab6; stroke-opacity: 0.65"/>
     <use xlink:href="#md30f876539" x="138.215984" y="86.876042" style="fill: #c79ab6; fill-opacity: 0.65; stroke: #c79ab6; stroke-opacity: 0.65"/>
     <use xlink:href="#md30f876539" x="184.617095" y="82.601255" style="fill: #c79ab6; fill-opacity: 0.65; stroke: #c79ab6; stroke-opacity: 0.65"/>
     <use xlink:href="#md30f876539" x="231.018207" y="88.631759" style="fill: #c79ab6; fill-opacity: 0.65; stroke: #c79ab6; stroke-opacity: 0.65"/>
    </g>
   </g>
   <g id="line2d_20">
    <path d="M 45.41376 92.248357 
L 91.814872 96.425354 
L 138.215984 120.357616 
L 184.617095 111.32284 
L 231.018207 113.014251 
" clip-path="url(#p3434e0a1e5)" style="fill: none; stroke-dasharray: 2.91375,1.26; stroke-dashoffset: 0; stroke: #91bfe3; stroke-opacity: 0.65; stroke-width: 0.7875"/>
    <defs>
     <path id="m7b97208fc3" d="M 0 0.85 
C 0.225423 0.85 0.441643 0.760439 0.601041 0.601041 
C 0.760439 0.441643 0.85 0.225423 0.85 0 
C 0.85 -0.225423 0.760439 -0.441643 0.601041 -0.601041 
C 0.441643 -0.760439 0.225423 -0.85 0 -0.85 
C -0.225423 -0.85 -0.441643 -0.760439 -0.601041 -0.601041 
C -0.760439 -0.441643 -0.85 -0.225423 -0.85 0 
C -0.85 0.225423 -0.760439 0.441643 -0.601041 0.601041 
C -0.441643 0.760439 -0.225423 0.85 0 0.85 
z
" style="stroke: #91bfe3; stroke-opacity: 0.65"/>
    </defs>
    <g clip-path="url(#p3434e0a1e5)">
     <use xlink:href="#m7b97208fc3" x="45.41376" y="92.248357" style="fill: #91bfe3; fill-opacity: 0.65; stroke: #91bfe3; stroke-opacity: 0.65"/>
     <use xlink:href="#m7b97208fc3" x="91.814872" y="96.425354" style="fill: #91bfe3; fill-opacity: 0.65; stroke: #91bfe3; stroke-opacity: 0.65"/>
     <use xlink:href="#m7b97208fc3" x="138.215984" y="120.357616" style="fill: #91bfe3; fill-opacity: 0.65; stroke: #91bfe3; stroke-opacity: 0.65"/>
     <use xlink:href="#m7b97208fc3" x="184.617095" y="111.32284" style="fill: #91bfe3; fill-opacity: 0.65; stroke: #91bfe3; stroke-opacity: 0.65"/>
     <use xlink:href="#m7b97208fc3" x="231.018207" y="113.014251" style="fill: #91bfe3; fill-opacity: 0.65; stroke: #91bfe3; stroke-opacity: 0.65"/>
    </g>
   </g>
   <g id="line2d_21">
    <path d="M 45.41376 127.892787 
L 91.814872 112.791007 
L 138.215984 114.546616 
L 184.617095 101.163815 
L 231.018207 109.812977 
" clip-path="url(#p3434e0a1e5)" style="fill: none; stroke-dasharray: 2.91375,1.26; stroke-dashoffset: 0; stroke: #b2a071; stroke-opacity: 0.65; stroke-width: 0.7875"/>
    <defs>
     <path id="m8316a80569" d="M 0 0.85 
C 0.225423 0.85 0.441643 0.760439 0.601041 0.601041 
C 0.760439 0.441643 0.85 0.225423 0.85 0 
C 0.85 -0.225423 0.760439 -0.441643 0.601041 -0.601041 
C 0.441643 -0.760439 0.225423 -0.85 0 -0.85 
C -0.225423 -0.85 -0.441643 -0.760439 -0.601041 -0.601041 
C -0.760439 -0.441643 -0.85 -0.225423 -0.85 0 
C -0.85 0.225423 -0.760439 0.441643 -0.601041 0.601041 
C -0.441643 0.760439 -0.225423 0.85 0 0.85 
z
" style="stroke: #b2a071; stroke-opacity: 0.65"/>
    </defs>
    <g clip-path="url(#p3434e0a1e5)">
     <use xlink:href="#m8316a80569" x="45.41376" y="127.892787" style="fill: #b2a071; fill-opacity: 0.65; stroke: #b2a071; stroke-opacity: 0.65"/>
     <use xlink:href="#m8316a80569" x="91.814872" y="112.791007" style="fill: #b2a071; fill-opacity: 0.65; stroke: #b2a071; stroke-opacity: 0.65"/>
     <use xlink:href="#m8316a80569" x="138.215984" y="114.546616" style="fill: #b2a071; fill-opacity: 0.65; stroke: #b2a071; stroke-opacity: 0.65"/>
     <use xlink:href="#m8316a80569" x="184.617095" y="101.163815" style="fill: #b2a071; fill-opacity: 0.65; stroke: #b2a071; stroke-opacity: 0.65"/>
     <use xlink:href="#m8316a80569" x="231.018207" y="109.812977" style="fill: #b2a071; fill-opacity: 0.65; stroke: #b2a071; stroke-opacity: 0.65"/>
    </g>
   </g>
   <g id="line2d_22">
    <path d="M 33.813482 107.833457 
L 242.618485 107.833457 
" clip-path="url(#p3434e0a1e5)" style="fill: none; stroke: #222222; stroke-width: 0.5; stroke-linecap: square"/>
   </g>
   <g id="patch_3">
    <path d="M 33.813482 194.4026 
L 33.813482 21.264314 
" style="fill: none; stroke: #000000; stroke-width: 0.6; stroke-linejoin: miter; stroke-linecap: square"/>
   </g>
   <g id="patch_4">
    <path d="M 33.813482 194.4026 
L 242.618485 194.4026 
" style="fill: none; stroke: #000000; stroke-width: 0.6; stroke-linejoin: miter; stroke-linecap: square"/>
   </g>
   <g id="text_12">
    <!-- $\times$2: $c$ -->
    <g style="fill: #222222" transform="translate(128.743984 17.064314)">
     <text>
      <tspan x="0" y="-0.96875" style="font-size: 7.4px; font-family: 'DejaVu Sans'; fill: #222222">×</tspan>
      <tspan x="6.179443" y="-0.96875" style="font-weight: 700; font-size: 7.4px; font-family: 'Arial'; fill: #222222">2</tspan>
      <tspan x="10.281067" y="-0.96875" style="font-weight: 700; font-size: 7.4px; font-family: 'Arial'; fill: #222222">:</tspan>
      <tspan x="12.737" y="-0.96875" style="font-weight: 700; font-size: 7.4px; font-family: 'Arial'; fill: #222222"> </tspan>
      <tspan x="14.786011" y="-0.96875" style="font-style: oblique; font-size: 7.4px; font-family: 'DejaVu Sans'; fill: #222222">c</tspan>
     </text>
    </g>
   </g>
   <g id="line2d_23">
    <path d="M 45.41376 79.999648 
L 91.814872 130.261439 
" clip-path="url(#p3434e0a1e5)" style="fill: none; stroke-dasharray: 2.91375,1.26; stroke-dashoffset: 0; stroke: #3f4858; stroke-width: 0.7875"/>
   </g>
   <g id="line2d_24">
    <path d="M 91.814872 130.261439 
L 138.215984 77.150936 
L 184.617095 44.329244 
L 231.018207 32.555941 
" clip-path="url(#p3434e0a1e5)" style="fill: none; stroke: #3f4858; stroke-width: 0.7875; stroke-linecap: square"/>
    <defs>
     <path id="m087b1adb55" d="M 0 0.85 
C 0.225423 0.85 0.441643 0.760439 0.601041 0.601041 
C 0.760439 0.441643 0.85 0.225423 0.85 0 
C 0.85 -0.225423 0.760439 -0.441643 0.601041 -0.601041 
C 0.441643 -0.760439 0.225423 -0.85 0 -0.85 
C -0.225423 -0.85 -0.441643 -0.760439 -0.601041 -0.601041 
C -0.760439 -0.441643 -0.85 -0.225423 -0.85 0 
C -0.85 0.225423 -0.760439 0.441643 -0.601041 0.601041 
C -0.441643 0.760439 -0.225423 0.85 0 0.85 
z
" style="stroke: #3f4858"/>
    </defs>
    <g clip-path="url(#p3434e0a1e5)">
     <use xlink:href="#m087b1adb55" x="91.814872" y="130.261439" style="fill: #3f4858; stroke: #3f4858"/>
     <use xlink:href="#m087b1adb55" x="138.215984" y="77.150936" style="fill: #3f4858; stroke: #3f4858"/>
     <use xlink:href="#m087b1adb55" x="184.617095" y="44.329244" style="fill: #3f4858; stroke: #3f4858"/>
     <use xlink:href="#m087b1adb55" x="231.018207" y="32.555941" style="fill: #3f4858; stroke: #3f4858"/>
    </g>
   </g>
   <g id="PathCollection_1">
    <defs>
     <path id="m626c68b4d5" d="M -1.274755 1.274755 
L 1.274755 -1.274755 
M -1.274755 -1.274755 
L 1.274755 1.274755 
" style="stroke: #3f4858; stroke-width: 0.62"/>
    </defs>
    <g clip-path="url(#p3434e0a1e5)">
     <use xlink:href="#m626c68b4d5" x="45.41376" y="79.999648" style="fill: #3f4858; stroke: #3f4858; stroke-width: 0.62"/>
    </g>
   </g>
  </g>
 </g>
 <defs>
  <clipPath id="p3434e0a1e5">
   <rect x="33.813482" y="21.264314" width="208.805003" height="173.138286"/>
  </clipPath>
 </defs>
</svg>
